<?xml version="1.0" standalone="no"?>
<!DOCTYPE svg PUBLIC "-//W3C//DTD SVG 20010904//EN"
 "http://www.w3.org/TR/2001/REC-SVG-20010904/DTD/svg10.dtd">
<svg version="1.0" xmlns="http://www.w3.org/2000/svg"
 width="500.000000pt" height="500.000000pt" viewBox="0 0 500.000000 500.000000"
 preserveAspectRatio="xMidYMid meet">
<metadata>
Created by potrace 1.14, written by Peter Selinger 2001-2017
</metadata>
<g transform="translate(0.000000,500.000000) scale(0.100000,-0.100000)"
fill="#000000" stroke="none">
<path d="M2847 4070 c-44 -13 -95 -57 -116 -98 -10 -20 -46 -125 -79 -232 -56
-183 -193 -621 -247 -790 -13 -41 -69 -221 -125 -400 -56 -179 -123 -395 -150
-480 -27 -85 -70 -222 -95 -305 -26 -82 -60 -190 -75 -240 -73 -232 -78 -251
-74 -293 15 -149 169 -229 302 -157 66 36 86 74 157 305 31 102 72 235 91 295
19 61 41 130 48 155 14 45 86 275 171 545 101 317 296 941 300 958 4 19 90
291 132 422 15 44 26 101 26 127 -1 60 -40 129 -91 163 -42 28 -128 40 -175
25z"/>
<path d="M1584 3547 c-38 -14 -58 -30 -200 -163 -60 -56 -125 -117 -145 -135
-20 -19 -65 -61 -100 -93 -35 -33 -96 -89 -135 -125 -38 -36 -124 -115 -189
-176 -65 -60 -149 -138 -185 -172 -36 -34 -80 -74 -98 -90 l-34 -29 113 -105
c61 -57 121 -112 133 -122 12 -10 46 -42 76 -71 30 -28 143 -132 250 -231 107
-99 204 -189 216 -200 127 -122 243 -224 274 -243 56 -34 145 -33 205 2 78 46
114 135 93 233 -8 35 -22 58 -62 97 -43 44 -217 206 -322 303 -17 15 -80 73
-139 128 -59 55 -133 123 -163 152 -63 58 -64 53 17 127 24 23 56 52 71 66 15
14 80 75 145 135 65 61 123 115 130 120 20 18 169 158 237 223 87 83 112 157
82 247 -36 105 -162 162 -270 122z"/>
<path d="M3305 3488 c-68 -24 -134 -116 -135 -188 0 -97 9 -109 270 -350 62
-58 123 -114 134 -125 20 -19 203 -189 306 -283 l45 -42 -45 -41 c-25 -23 -77
-72 -116 -108 -39 -36 -122 -113 -184 -171 -62 -58 -130 -121 -151 -140 -20
-19 -79 -73 -130 -120 -101 -93 -129 -138 -129 -210 0 -152 166 -256 297 -187
23 12 88 65 144 117 56 52 107 100 113 105 6 6 47 44 91 85 153 143 323 301
342 318 24 20 231 213 317 295 l61 57 -55 52 c-102 95 -285 266 -316 294 -17
16 -82 76 -144 134 -62 58 -127 118 -144 134 -17 15 -58 54 -91 85 -230 214
-282 258 -323 278 -50 24 -108 28 -157 11z"/>
</g>
</svg>
